<svg width="95" height="25" viewBox="0 0 95 25" fill="none" xmlns="http://www.w3.org/2000/svg">
<path d="M0.761364 24V0.727272H10.4659C12.2083 0.727272 13.6667 0.973484 14.8409 1.46591C16.0227 1.95833 16.9091 2.64773 17.5 3.53409C18.0985 4.42045 18.3977 5.44697 18.3977 6.61364C18.3977 7.5 18.2121 8.29167 17.8409 8.98864C17.4697 9.67803 16.9583 10.25 16.3068 10.7045C15.6553 11.1591 14.9015 11.4773 14.0455 11.6591V11.8864C14.9848 11.9318 15.8523 12.1856 16.6477 12.6477C17.4508 13.1098 18.0947 13.7538 18.5795 14.5795C19.0644 15.3977 19.3068 16.3674 19.3068 17.4886C19.3068 18.7386 18.9886 19.8561 18.3523 20.8409C17.7159 21.8182 16.7955 22.5909 15.5909 23.1591C14.3864 23.7197 12.9242 24 11.2045 24H0.761364ZM6.38636 19.4659H9.86364C11.0833 19.4659 11.9811 19.2348 12.5568 18.7727C13.1402 18.3106 13.4318 17.6667 13.4318 16.8409C13.4318 16.2424 13.2917 15.7273 13.0114 15.2955C12.7311 14.8561 12.3333 14.5189 11.8182 14.2841C11.303 14.0417 10.6856 13.9205 9.96591 13.9205H6.38636V19.4659ZM6.38636 10.2955H9.5C10.1136 10.2955 10.6591 10.1932 11.1364 9.98864C11.6136 9.78409 11.9848 9.48864 12.25 9.10227C12.5227 8.71591 12.6591 8.25 12.6591 7.70454C12.6591 6.92424 12.3826 6.31061 11.8295 5.86364C11.2765 5.41667 10.5303 5.19318 9.59091 5.19318H6.38636V10.2955ZM43.9773 12.3636C43.9773 14.9242 43.4848 17.0947 42.5 18.875C41.5152 20.6553 40.1818 22.0076 38.5 22.9318C36.8258 23.8561 34.947 24.3182 32.8636 24.3182C30.7727 24.3182 28.8902 23.8523 27.2159 22.9205C25.5417 21.9886 24.2121 20.6364 23.2273 18.8636C22.25 17.0833 21.7614 14.9167 21.7614 12.3636C21.7614 9.80303 22.25 7.63258 23.2273 5.85227C24.2121 4.07197 25.5417 2.7197 27.2159 1.79545C28.8902 0.871211 30.7727 0.40909 32.8636 0.40909C34.947 0.40909 36.8258 0.871211 38.5 1.79545C40.1818 2.7197 41.5152 4.07197 42.5 5.85227C43.4848 7.63258 43.9773 9.80303 43.9773 12.3636ZM38.2273 12.3636C38.2273 10.8485 38.0114 9.56818 37.5795 8.52273C37.1553 7.47727 36.5417 6.6856 35.7386 6.14773C34.9432 5.60985 33.9848 5.34091 32.8636 5.34091C31.75 5.34091 30.7917 5.60985 29.9886 6.14773C29.1856 6.6856 28.5682 7.47727 28.1364 8.52273C27.7121 9.56818 27.5 10.8485 27.5 12.3636C27.5 13.8788 27.7121 15.1591 28.1364 16.2045C28.5682 17.25 29.1856 18.0417 29.9886 18.5795C30.7917 19.1174 31.75 19.3864 32.8636 19.3864C33.9848 19.3864 34.9432 19.1174 35.7386 18.5795C36.5417 18.0417 37.1553 17.25 37.5795 16.2045C38.0114 15.1591 38.2273 13.8788 38.2273 12.3636ZM47.2614 24V0.727272H56.9659C58.7083 0.727272 60.1667 0.973484 61.3409 1.46591C62.5227 1.95833 63.4091 2.64773 64 3.53409C64.5985 4.42045 64.8977 5.44697 64.8977 6.61364C64.8977 7.5 64.7121 8.29167 64.3409 8.98864C63.9697 9.67803 63.4583 10.25 62.8068 10.7045C62.1553 11.1591 61.4015 11.4773 60.5455 11.6591V11.8864C61.4848 11.9318 62.3523 12.1856 63.1477 12.6477C63.9508 13.1098 64.5947 13.7538 65.0795 14.5795C65.5644 15.3977 65.8068 16.3674 65.8068 17.4886C65.8068 18.7386 65.4886 19.8561 64.8523 20.8409C64.2159 21.8182 63.2955 22.5909 62.0909 23.1591C60.8864 23.7197 59.4242 24 57.7045 24H47.2614ZM52.8864 19.4659H56.3636C57.5833 19.4659 58.4811 19.2348 59.0568 18.7727C59.6402 18.3106 59.9318 17.6667 59.9318 16.8409C59.9318 16.2424 59.7917 15.7273 59.5114 15.2955C59.2311 14.8561 58.8333 14.5189 58.3182 14.2841C57.803 14.0417 57.1856 13.9205 56.4659 13.9205H52.8864V19.4659ZM52.8864 10.2955H56C56.6136 10.2955 57.1591 10.1932 57.6364 9.98864C58.1136 9.78409 58.4848 9.48864 58.75 9.10227C59.0227 8.71591 59.1591 8.25 59.1591 7.70454C59.1591 6.92424 58.8826 6.31061 58.3295 5.86364C57.7765 5.41667 57.0303 5.19318 56.0909 5.19318H52.8864V10.2955ZM73.1364 0.727272V3.31818C73.1364 4.03788 72.9924 4.76515 72.7045 5.5C72.4242 6.22727 72.0568 6.90909 71.6023 7.54545C71.1477 8.18182 70.6667 8.7197 70.1591 9.15909L67.7955 7.86364C68.1439 7.28788 68.4545 6.64015 68.7273 5.92045C69 5.19318 69.1364 4.32954 69.1364 3.32954V0.727272H73.1364ZM88.8409 7.70454C88.7652 6.87121 88.428 6.22348 87.8295 5.76136C87.2386 5.29167 86.3939 5.05682 85.2955 5.05682C84.5682 5.05682 83.9621 5.15151 83.4773 5.34091C82.9924 5.5303 82.6288 5.79167 82.3864 6.125C82.1439 6.45076 82.0189 6.82576 82.0114 7.25C81.9962 7.59848 82.0644 7.9053 82.2159 8.17045C82.375 8.43561 82.6023 8.67045 82.8977 8.875C83.2008 9.07197 83.5644 9.24621 83.9886 9.39773C84.4129 9.54924 84.8902 9.68182 85.4205 9.79545L87.4205 10.25C88.572 10.5 89.5871 10.8333 90.4659 11.25C91.3523 11.6667 92.0947 12.1629 92.6932 12.7386C93.2992 13.3144 93.7576 13.9773 94.0682 14.7273C94.3788 15.4773 94.5379 16.3182 94.5455 17.25C94.5379 18.7197 94.1667 19.9811 93.4318 21.0341C92.697 22.0871 91.6402 22.8939 90.2614 23.4545C88.8902 24.0152 87.2348 24.2955 85.2955 24.2955C83.3485 24.2955 81.6515 24.0038 80.2045 23.4205C78.7576 22.8371 77.6326 21.9508 76.8295 20.7614C76.0265 19.572 75.6136 18.0682 75.5909 16.25H80.9773C81.0227 17 81.2235 17.625 81.5795 18.125C81.9356 18.625 82.4242 19.0038 83.0455 19.2614C83.6742 19.5189 84.4015 19.6477 85.2273 19.6477C85.9848 19.6477 86.6288 19.5455 87.1591 19.3409C87.697 19.1364 88.1098 18.8523 88.3977 18.4886C88.6856 18.125 88.8333 17.7083 88.8409 17.2386C88.8333 16.7992 88.697 16.4242 88.4318 16.1136C88.1667 15.7955 87.7576 15.5227 87.2045 15.2955C86.6591 15.0606 85.9621 14.8447 85.1136 14.6477L82.6818 14.0795C80.6667 13.6174 79.0795 12.8712 77.9205 11.8409C76.7614 10.803 76.1856 9.40151 76.1932 7.63636C76.1856 6.19697 76.572 4.93561 77.3523 3.85227C78.1326 2.76894 79.2121 1.92424 80.5909 1.31818C81.9697 0.712121 83.5417 0.40909 85.3068 0.40909C87.1098 0.40909 88.6742 0.715908 90 1.32954C91.3333 1.93561 92.3674 2.78788 93.1023 3.88636C93.8371 4.98485 94.2121 6.25757 94.2273 7.70454H88.8409Z" fill="white"/>
</svg>
